<svg width="735" height="128" viewBox="0 0 735 128" fill="none" xmlns="http://www.w3.org/2000/svg">
<g clip-path="url(#clip0_1124_24328)">
<path d="M228.584 77.4985C232.513 77.7131 236.442 77.6453 240.359 77.5663C239.942 77.9727 239.095 78.7856 238.666 79.1921C245.914 84.4647 253.275 89.5792 260.603 94.7614C260.524 89.0147 260.885 83.2566 260.185 77.5324C262.917 77.6114 265.638 77.634 268.371 77.5663C267.727 83.3243 268.066 89.1276 267.953 94.9082C268.032 97.7082 267.49 100.836 269.488 103.161C266.18 103.082 262.884 103.071 259.575 103.037C258.684 101.603 257.724 100.147 256.279 99.2211C249.775 94.6372 243.216 90.1211 236.679 85.5937C236.814 90.9227 236.272 96.2969 236.984 101.592C237.446 101.965 238.361 102.699 238.813 103.071C235.369 102.992 231.914 103.037 228.482 103.195C229.656 98.6566 229.216 93.9485 229.284 89.3082C229.317 85.3679 229.396 81.3824 228.584 77.4985Z" fill="white"/>
<path d="M295.547 77.7914C302.4 77.5092 309.253 77.6898 316.118 77.6221C321.672 77.6559 327.69 77.7011 332.466 80.964C337.185 84.0237 338.777 90.8092 336.068 95.6979C333.787 100.022 328.808 102.133 324.156 102.653C314.864 103.567 305.516 102.675 296.213 103.285C297.319 102.235 297.861 100.959 297.85 99.4688C297.951 92.5705 297.827 85.6721 297.85 78.7737C297.274 78.5253 296.122 78.0285 295.547 77.7914ZM306.024 81.6753C306.001 87.4446 305.99 93.2027 306.024 98.9721C312.234 98.5882 318.737 99.8301 324.721 97.6511C330.66 95.2914 330.592 85.4237 324.721 83.0301C318.748 80.8511 312.234 82.0479 306.024 81.6753Z" fill="white"/>
<path d="M376.589 77.7131C383.634 76.6292 391.21 76.8324 397.714 80.0276C402.038 82.1163 405.797 86.576 405.018 91.6566C403.968 97.3018 398.617 100.96 393.389 102.349C386.626 104.087 379.355 103.952 372.638 102.044C367.072 100.395 361.347 95.6195 362.093 89.2518C362.996 82.2405 370.312 78.6728 376.589 77.7131ZM377.605 82.1841C373.902 83.2002 370.064 86.1921 370.222 90.3808C370.12 94.5808 373.959 97.4486 377.628 98.4986C383.318 99.9889 390.093 99.5711 394.665 95.4953C397.725 92.6276 397.431 87.1631 394.101 84.6341C389.494 81.055 383.059 80.7841 377.605 82.1841Z" fill="white"/>
<path d="M430.049 77.735C434.497 77.5657 438.957 77.6673 443.428 77.6334C443.033 78.0286 442.254 78.8076 441.858 79.2028C448.915 84.6447 456.457 89.4092 463.581 94.7721C463.762 89.4431 463.694 84.1028 463.671 78.7737C463.107 78.5141 461.978 78.006 461.413 77.7463C465.433 77.5657 469.463 77.5431 473.483 77.7576C472.907 77.9834 471.755 78.4237 471.179 78.6496C470.999 86.3608 471.044 94.0834 471.146 101.806C471.699 102.1 472.794 102.698 473.336 103.003C469.531 103.104 465.738 103.082 461.944 103.127C461.989 102.63 462.091 101.625 462.136 101.129C454.65 95.9915 447.267 90.7076 439.747 85.6157C440.267 91.4302 438.46 97.7076 440.989 103.172C437.308 103.093 433.628 103.082 429.958 102.958C430.557 102.687 431.731 102.145 432.329 101.874C432.454 94.1625 432.555 86.4399 432.284 78.7286C431.731 78.4802 430.602 77.9834 430.049 77.735Z" fill="white"/>
<path d="M563.387 81.2578C567.249 77.5659 573.041 77.261 578.099 77.1142C584.297 76.911 590.134 79.361 596.242 79.9368C594.819 81.7997 593.42 83.6739 592.042 85.5707C585.55 80.5917 575.637 79.8352 568.513 83.9562C569.416 84.7917 569.981 86.2142 571.279 86.5417C578.471 88.0207 586.397 86.6094 593.081 90.1884C596.355 91.7352 597.269 96.432 594.763 99.0739C590.947 102.743 585.302 103.184 580.3 103.477C573.492 104.064 567.057 101.546 560.429 100.587C561.795 98.69 563.06 96.7142 564.437 94.8175C568.242 98.7352 574.057 98.9836 579.171 99.2659C582.445 99.1642 586.487 99.0852 588.542 96.0594C588.316 93.1126 584.782 93.6659 582.682 93.1804C576.687 92.2997 570.184 93.1239 564.674 90.1771C561.502 88.4271 560.757 83.8433 563.387 81.2578Z" fill="white"/>
<path d="M620.753 77.7915C625.021 77.5996 629.3 77.6109 633.567 77.6786C632.867 78.0963 632.179 78.5141 631.49 78.9318C631.501 85.785 631.366 92.6383 631.479 99.4802C631.366 100.914 632.371 102.054 632.969 103.262C629.017 103.025 625.066 102.991 621.126 103.161C621.611 102.8 622.582 102.066 623.079 101.693C623.779 94.0383 623.203 86.3157 623.35 78.627C622.695 78.4238 621.408 77.9947 620.753 77.7915Z" fill="white"/>
<path d="M191.044 77.5881C194.205 77.6559 197.366 77.622 200.539 77.4526C198.123 85.0284 200.042 93.2591 199.387 101.106C199.771 101.591 200.528 102.551 200.912 103.037C197.615 103.093 194.318 103.082 191.021 103.127C191.383 94.6252 191.349 86.0897 191.044 77.5881Z" fill="white"/>
<path d="M500.568 77.543C510.221 77.7688 519.897 77.5769 529.561 77.6785C531.605 77.7914 533.57 77.2043 535.489 76.5269C535.41 78.5817 535.376 80.6252 535.353 82.6801C526.807 80.4785 517.774 82.2962 509.024 81.7091C509.036 83.7414 509.047 85.7736 509.07 87.8172C515.144 87.4559 521.59 89.0027 527.371 86.643C527.258 88.7881 527.19 90.9559 527.179 93.1123C521.523 90.5494 515.031 92.3672 509.036 91.893C509.036 94.2414 509.036 96.5898 509.024 98.9269C518.034 98.3736 527.315 100.09 536.155 97.9559C536.099 100.056 536.099 102.167 536.132 104.267C532.678 102.461 528.703 103.172 524.989 103.07C516.386 103.206 507.771 102.833 499.179 103.24C501.471 101.467 500.884 98.543 500.963 96.0591C500.805 89.8833 501.234 83.6962 500.568 77.543Z" fill="white"/>
<path d="M673.672 77.5881C677.285 77.6671 680.886 77.6219 684.499 77.509C684.307 79.18 684.251 80.9752 685.549 82.251C689.715 87.9074 693.893 93.5639 697.98 99.2768C699.075 101.038 700.836 102.145 702.62 103.115C698.014 103.014 693.396 103.003 688.789 103.138C689.264 102.404 689.749 101.67 690.235 100.936C689.162 99.48 688.101 98.0123 687.051 96.5558C681.304 96.4881 675.557 96.5445 669.81 96.4881C668.602 98.5881 666.243 100.699 668.004 103.217C664.075 103.036 660.135 103.014 656.206 103.127C661.241 99.751 663.589 93.8348 667.338 89.251C669.539 85.4348 673.694 82.3413 673.672 77.5881ZM672.373 93.1461C676.427 93.1461 680.48 93.1461 684.544 93.18C682.636 90.0413 680.615 86.959 678.526 83.9332C676.449 86.9929 674.394 90.0526 672.373 93.1461Z" fill="white"/>
<path d="M98.9591 9.95905C100.269 7.04615 101.646 4.15583 103.046 1.28809C104.435 4.17841 105.846 7.05744 107.178 9.97034C110.125 10.5123 113.083 11.0542 116.041 11.5736C113.975 13.8203 111.909 16.0671 109.82 18.28C110.249 21.4639 110.701 24.6478 111.13 27.8203C108.409 26.3978 105.722 24.93 103.024 23.4849C100.359 24.9413 97.7172 26.4203 95.0526 27.8655C95.4252 24.6816 95.8768 21.5203 96.3736 18.3591C94.2736 16.1236 92.1962 13.8655 90.0962 11.63C93.043 11.0542 96.001 10.501 98.9591 9.95905Z" fill="#2E3193"/>
<path d="M38.1163 10.0038C39.5276 7.09095 40.9614 4.20063 42.4066 1.3103C43.7388 4.22321 45.0937 7.11353 46.4372 10.0151C49.4405 10.5345 52.4324 11.0426 55.4356 11.528C53.3017 13.7635 51.1792 16.0329 49.034 18.2684C49.5082 21.4409 49.9598 24.6135 50.4566 27.7748C47.634 26.4651 45.0372 24.4668 41.955 23.8684C39.2792 24.9184 36.8405 26.4651 34.3227 27.82C34.6953 24.6474 35.1243 21.4861 35.5647 18.3361C33.4759 16.078 31.3759 13.82 29.3098 11.5506C32.2453 11.0651 35.1808 10.5232 38.1163 10.0038Z" fill="#2E3193"/>
<path d="M222.465 19.5561C223.086 19.5561 224.328 19.5448 224.949 19.5448C226.97 21.6222 229.984 21.0238 232.581 21.1141C240.213 20.9674 247.845 21.2496 255.466 21.0012C256.866 20.1658 258.334 19.4771 259.881 18.9238C259.971 23.0561 259.96 27.1883 259.892 31.3206C255.703 29.2093 251.029 29.198 246.468 29.4803C246.502 35.8367 246.524 42.1819 246.457 48.5383C246.513 50.8303 246.039 53.4835 248.094 55.1206C248.082 55.7303 248.082 56.9496 248.082 57.5593C243.499 57.5932 238.937 57.5932 234.365 57.6045C234.376 56.9948 234.399 55.798 234.41 55.1883C234.76 54.6351 235.471 53.5061 235.832 52.9416C236.386 45.1512 235.753 37.3045 236.126 29.4916C231.508 29.2319 226.766 29.1529 222.555 31.3545C222.431 27.4254 222.442 23.4851 222.465 19.5561Z" fill="#2E3193"/>
<path d="M415.574 20.9671C416.94 20.1881 418.385 19.5446 419.864 18.9688C420.101 23.0897 420.034 27.222 420.011 31.3429C412.311 27.8768 403.663 30.022 395.511 29.4462C395.545 31.2187 395.579 32.9913 395.624 34.7639C400.377 34.2897 405.74 36.0397 409.996 33.2962C410.606 33.2397 411.825 33.1268 412.435 33.0704C412.435 36.9881 412.458 40.9171 412.39 44.8349C410.821 44.2478 409.263 43.6494 407.727 43.0058C403.696 42.78 399.655 42.8139 395.613 42.8139C396.155 46.8107 394.122 51.801 397.114 55.0526C397.171 55.6849 397.272 56.9494 397.329 57.5817C392.666 57.5704 388.014 57.6042 383.351 57.5252C383.453 56.9268 383.645 55.73 383.746 55.1317C386.117 51.9478 384.842 47.7591 385.135 44.101C384.672 36.4349 386.467 28.3736 383.216 21.1252C393.998 20.9897 404.792 21.2155 415.574 20.9671Z" fill="#2E3193"/>
<path d="M527.857 19.1612C530.6 20.0305 533.299 21.3628 536.268 21.137C544.465 21.0128 552.673 21.216 560.881 20.9451C562.247 20.166 563.715 19.5902 565.182 19.0144C565.352 22.9773 565.318 26.9515 565.284 30.9257C564.663 30.9483 563.421 30.9934 562.8 31.016C562.382 30.6209 561.558 29.8531 561.14 29.458C558.013 29.458 554.886 29.458 551.758 29.4918C552.086 37.2709 551.453 45.0951 552.052 52.8515C552.323 53.3934 552.865 54.466 553.136 55.008C553.26 55.6402 553.497 56.916 553.61 57.5483C549.026 57.6273 544.442 57.5934 539.858 57.6273C539.847 56.9725 539.813 55.6628 539.802 55.008C540.931 53.8451 541.45 52.4902 541.36 50.9096C541.394 43.7515 541.258 36.5821 541.416 29.4241C538.334 29.458 535.263 29.4692 532.192 29.5934C530.781 30.2257 529.358 30.8241 527.936 31.3999C527.766 27.3241 527.8 23.237 527.857 19.1612Z" fill="#2E3193"/>
<path d="M182.113 25.3371C186.346 20.8775 193.008 20.0984 198.834 20.6516C204.174 21.0242 208.961 24.1291 214.403 23.7904C214.143 28.1597 211.174 31.6597 209.3 35.4533C204.761 29.0629 194.724 26.5113 188.413 31.7613C194.363 35.2613 201.78 33.2291 207.967 36.1081C212.8 37.9258 215.543 43.6162 214.154 48.55C213.172 52.592 209.706 55.5613 205.856 56.8146C199.195 58.9371 191.856 58.5081 185.33 56.092C182.813 55.1323 180.171 54.6355 177.551 54.1049C179.211 50.4581 180.893 46.8 182.463 43.1081C183.445 43.3904 184.382 43.7629 185.285 44.2258C185.421 44.8468 185.68 46.1113 185.805 46.7323C191.314 49.5549 197.975 50.9323 203.756 48.0871C203.88 47.3645 204.106 45.9081 204.23 45.1855C197.908 43.7968 191.167 44.3726 185.116 41.8775C178.85 39.2581 177.461 30.0452 182.113 25.3371Z" fill="#2E3193"/>
<path d="M443.088 21.0694C451.612 19.3984 461.841 21.1936 467.091 28.7581C473.583 37.4968 470.027 51.5081 460.035 55.9226C450.754 59.9759 438.087 59.0952 431.312 50.8646C424.922 43.2323 426.435 30.5533 434.462 24.6823C437.014 22.842 440.006 21.6678 443.088 21.0694ZM444.07 29.9662C438.516 31.9081 436.291 39.1 438.956 44.1468C442.174 50.7517 452.245 51.5194 457.167 46.45C460.679 42.5097 460.848 35.7129 456.874 32.0323C453.498 28.8823 448.27 28.1936 444.07 29.9662Z" fill="#2E3193"/>
<path d="M708.964 20.9782C710.003 20.4589 712.069 19.4202 713.108 18.9121C713.356 23.0669 713.345 27.2331 713.176 31.3992C711.697 30.8121 710.251 30.2137 708.829 29.5702C702.122 29.3444 695.416 29.4573 688.721 29.4911C688.755 31.2299 688.811 32.9686 688.879 34.696C694.479 34.5153 700.418 35.5202 705.543 32.6186C705.69 36.7057 705.679 40.7815 705.69 44.8686C704.087 44.2589 702.529 43.6379 700.982 42.9266C696.918 42.7121 692.853 42.8024 688.8 42.7347C688.789 44.925 688.8 47.1266 688.822 49.317C697.143 48.5605 705.995 50.9879 713.83 47.2734C713.909 51.3492 713.932 55.4137 713.864 59.4782C711.211 58.5524 708.547 57.4347 705.679 57.5928C696.093 57.6153 686.508 57.525 676.922 57.7057C676.776 56.9266 676.629 56.1476 676.505 55.3686C677.656 54.1605 678.526 52.6928 678.277 50.954C678.3 42.2153 678.311 33.4879 678.232 24.7605C677.803 24.5911 676.945 24.2524 676.516 24.0831C676.561 23.3379 676.663 21.8476 676.719 21.1024C687.468 21.046 698.216 21.1815 708.964 20.9782Z" fill="#2E3193"/>
<path d="M275.461 21.159C280.847 21.0461 286.244 21.0574 291.629 21.1477C291.087 22.7171 290.534 24.2751 289.936 25.8219C293.187 32.1219 296.484 38.3993 299.657 44.7445C301.655 48.3235 303.021 52.5122 306.544 54.9622C306.589 55.6171 306.668 56.9268 306.713 57.5703C301.316 57.5364 295.908 57.7171 290.511 57.5026C291.031 56.0461 291.607 54.6009 292.216 53.1784C291.607 51.7897 290.986 50.4122 290.387 49.0348C285.589 48.8993 280.79 48.9558 275.992 48.9784C275.36 50.3671 274.739 51.7445 274.129 53.1445C274.886 54.5219 275.518 55.9558 276.026 57.4461C271.069 57.6832 266.102 57.6606 261.157 57.5026C261.1 56.9268 260.976 55.7751 260.919 55.1993C262.545 53.9009 264.081 52.4332 264.916 50.4913C268.936 42.2719 273.057 34.0977 277.121 25.8896C276.534 24.3203 275.981 22.7509 275.461 21.159ZM279.707 41.6397C281.998 41.5945 284.29 41.5606 286.594 41.5155C285.487 39.1106 284.347 36.7284 283.229 34.3348C282.055 36.7735 280.869 39.2009 279.707 41.6397Z" fill="#2E3193"/>
<path d="M315.654 25.6075C314.683 24.2865 314.187 22.7172 313.758 21.1478C322.44 21.1252 331.133 21.0123 339.816 21.1704C344.027 21.193 348.758 22.2317 351.399 25.822C354.041 29.8526 354.019 35.6107 351.095 39.4833C349.401 41.301 347.075 42.2946 344.941 43.4914C347.606 46.7881 350.067 50.243 352.585 53.6526C353.262 53.7881 354.595 54.0817 355.261 54.2285C355.272 55.0527 355.306 56.7123 355.317 57.5478C350.022 57.6494 344.738 57.6268 339.443 57.5139C339.725 56.1365 340.019 54.7591 340.358 53.3817C337.987 50.2317 335.706 47.0139 333.391 43.8188C331.043 43.8188 328.695 43.8188 326.358 43.8075C326.606 47.5672 325.082 51.9591 327.679 55.1768C327.746 55.7752 327.882 56.9494 327.938 57.5478C323.343 57.6268 318.748 57.593 314.153 57.6381C314.175 57.0059 314.232 55.7414 314.254 55.1091C315.248 53.9123 316.004 52.5575 315.779 50.943C315.722 42.4978 315.891 34.0526 315.654 25.6075ZM326.166 29.5252C326.245 31.5123 326.324 33.5107 326.414 35.4978C331.235 35.3736 336.124 35.8478 340.922 35.1139C342.537 34.7865 342.717 32.7543 343.632 31.6478C338.766 27.6623 331.924 30.0559 326.166 29.5252Z" fill="#2E3193"/>
<path d="M480.494 23.5868C480.437 22.7513 480.403 21.9158 480.381 21.0916C488.487 21.0803 496.594 21.0803 504.7 21.1368C508.539 21.2384 512.784 21.419 515.9 23.9819C519.784 27.2448 520.507 33.24 518.486 37.6997C517.131 40.669 513.981 41.99 511.305 43.469C514.489 47.398 516.724 52.5013 521.523 54.7593C521.478 55.4819 521.41 56.9158 521.376 57.6384C516.137 57.5593 510.899 57.6158 505.671 57.5255C505.942 56.148 506.247 54.7819 506.574 53.4158C504.237 50.2432 501.957 47.0255 499.665 43.819C497.271 43.819 494.878 43.8077 492.484 43.7739C492.281 48.4706 492.202 53.269 494.482 57.5255C489.65 57.6271 484.807 57.7061 479.974 57.4577C480.957 54.9739 482.311 52.5126 482.029 49.7351C481.916 41.8093 482.199 33.8722 481.905 25.9577C481.555 25.3593 480.844 24.1739 480.494 23.5868ZM492.518 29.4013C492.473 31.4222 492.45 33.4545 492.439 35.4755C497.316 35.3513 502.25 35.8255 507.105 35.1593C509.634 34.8319 509.465 31.8287 508.46 30.1351C503.278 28.7577 497.813 29.7174 492.518 29.4013Z" fill="#2E3193"/>
<path d="M572.307 21.148C577.116 21.1254 581.926 21.1029 586.747 21.1367C583.699 27.2335 585.042 34.1545 584.76 40.6916C585.008 43.1303 584.252 46.3141 586.442 48.0641C590.134 50.1416 594.786 50.1416 598.749 48.877C600.363 48.448 601.684 46.9803 601.729 45.2641C602.192 38.8174 601.887 32.3367 601.876 25.8787C601.187 24.3206 600.521 22.7287 599.923 21.148C604.563 21.148 609.192 21.0803 613.832 21.1367C613.223 22.7738 612.59 24.3996 611.913 26.0029C611.518 33.3303 612.252 40.7029 611.473 48.0077C610.694 54.3641 604.078 57.4803 598.353 57.9093C591.749 58.4287 584.432 58.5641 578.652 54.8383C574.068 51.7561 574.328 45.6367 574.316 40.7593C574.034 34.1883 575.502 27.2335 572.307 21.148Z" fill="#2E3193"/>
<path d="M623.169 21.17C628.137 21.0796 633.104 21.1022 638.083 21.0684C636.966 25.7764 641.121 28.3958 643.943 31.2861C647.466 34.6393 650.83 38.1845 654.443 41.4587C654.116 34.6845 655.775 27.4587 652.49 21.17C656.882 21.0458 661.274 21.0797 665.666 21.0797C665.756 21.8587 665.948 23.4055 666.05 24.1845C665.598 24.32 664.706 24.5797 664.254 24.7151C664.198 32.6861 664.277 40.6684 664.175 48.6393C664.221 50.8974 663.78 53.528 665.79 55.1426C665.813 55.7635 665.858 56.9942 665.88 57.6038C661.274 57.5926 656.679 57.6264 652.083 57.57C652.095 56.1926 652.117 54.8264 652.151 53.4603C646.348 47.849 640.725 42.0684 634.9 36.5022C635.013 42.0006 634.73 47.5329 635.103 53.02C635.475 53.5393 636.221 54.578 636.582 55.0974C636.571 55.7184 636.548 56.949 636.537 57.57C632.021 57.5926 627.493 57.649 622.988 57.4796C623.53 56.0232 624.162 54.5893 625.1 53.3135C625.292 44.97 625.19 36.6151 625.201 28.2603C625.292 25.72 623.937 23.5071 623.169 21.17Z" fill="#2E3193"/>
<path d="M60.9446 46.9798C64.5575 39.0089 68.4527 31.1734 72.2575 23.2927C76.0624 31.1734 79.9575 39.0201 83.5591 47.0024C91.7785 48.3234 99.964 49.7911 108.172 51.1347C102.324 57.4234 96.3172 63.5766 90.593 69.9895C91.9027 78.7056 93.2349 87.4331 94.4656 96.1718C87.0817 92.096 79.6753 88.0427 72.235 84.0798C64.8285 88.0879 57.4108 92.0847 50.0495 96.1718C51.2462 87.4331 52.6011 78.7169 53.922 70.0008C48.2204 63.5653 42.1688 57.4572 36.343 51.1459C44.5398 49.7685 52.7366 48.3347 60.9446 46.9798Z" fill="#2E3193"/>
<path d="M12.1934 49.7124C13.5482 46.8334 14.9257 43.9656 16.2918 41.0979C17.6918 44.0221 19.1031 46.9463 20.5257 49.8705C23.4611 50.2882 26.3853 50.7398 29.3095 51.2366C27.2886 53.4495 25.1095 55.5382 23.2805 57.9318C23.1224 61.1834 24.037 64.4237 24.4095 67.664C21.6773 66.1398 18.9224 64.6382 16.1224 63.2608C13.4918 64.7398 10.8386 66.1737 8.17405 67.585C8.62566 64.4915 9.08856 61.3979 9.59663 58.3044C7.54179 55.9108 5.38534 53.6076 3.25146 51.2931C6.23211 50.7963 9.21276 50.2769 12.1934 49.7124Z" fill="#2E3193"/>
<path d="M123.877 49.5652C125.695 46.9346 126.858 43.9426 128.235 41.0862C129.59 44.0104 130.979 46.9346 132.401 49.8362C135.359 50.2991 138.318 50.7959 141.276 51.27C139.13 53.6071 136.974 55.9104 134.908 58.3152C135.416 61.3975 135.868 64.491 136.308 67.5733C133.666 66.162 131.035 64.7394 128.438 63.2604C125.605 64.6265 122.85 66.1168 120.106 67.6523C120.513 64.412 121.348 61.183 121.235 57.9088C119.406 55.5378 117.216 53.483 115.127 51.3378C118.051 50.762 121.043 50.5023 123.877 49.5652Z" fill="#2E3193"/>
<path d="M170.755 71.5365C174.785 71.0736 178.861 71.3671 182.914 71.2994C360.929 71.322 538.943 71.2994 716.958 71.322C721.09 71.1075 725.595 72.2591 728.124 75.7929C731.579 79.8349 730.314 85.5139 730.574 90.38C730.36 95.0204 731.443 100.236 728.519 104.267C726.34 107.733 722.197 109.461 718.189 109.325C536.73 109.314 355.272 109.314 173.814 109.325C167.853 109.845 161.734 105.407 161.214 99.2881C160.853 93.6994 161 88.0768 161.113 82.4768C161.079 77.0687 165.493 72.3155 170.755 71.5365ZM228.584 77.4978C229.397 81.3817 229.318 85.3671 229.284 89.3075C229.216 93.9478 229.656 98.6558 228.482 103.195C231.914 103.036 235.369 102.991 238.813 103.07C238.361 102.698 237.447 101.964 236.984 101.591C236.272 96.2962 236.814 90.922 236.679 85.5929C243.216 90.1204 249.776 94.6365 256.279 99.2204C257.724 100.146 258.684 101.603 259.576 103.036C262.884 103.07 266.181 103.082 269.489 103.161C267.49 100.835 268.032 97.7075 267.953 94.9075C268.066 89.1268 267.727 83.3236 268.371 77.5655C265.639 77.6333 262.918 77.6107 260.185 77.5317C260.885 83.2558 260.524 89.0139 260.603 94.7607C253.276 89.5784 245.914 84.4639 238.666 79.1913C239.095 78.7849 239.942 77.972 240.36 77.5655C236.442 77.6446 232.513 77.7123 228.584 77.4978ZM295.547 77.7913C296.122 78.0284 297.274 78.5252 297.85 78.7736C297.827 85.672 297.951 92.5704 297.85 99.4687C297.861 100.959 297.319 102.235 296.213 103.285C305.516 102.675 314.864 103.567 324.156 102.653C328.808 102.133 333.787 100.022 336.068 95.6978C338.777 90.8091 337.185 84.0236 332.466 80.9639C327.69 77.701 321.672 77.6558 316.118 77.622C309.253 77.6897 302.4 77.5091 295.547 77.7913ZM376.589 77.7123C370.311 78.672 362.995 82.2397 362.092 89.251C361.347 95.6187 367.071 100.395 372.637 102.043C379.355 103.951 386.626 104.086 393.389 102.348C398.616 100.959 403.968 97.301 405.018 91.6558C405.797 86.5752 402.037 82.1155 397.713 80.0268C391.21 76.8316 383.634 76.6284 376.589 77.7123ZM430.048 77.7349C430.601 77.9833 431.731 78.48 432.284 78.7284C432.555 86.4397 432.453 94.1623 432.329 101.874C431.731 102.145 430.556 102.686 429.958 102.957C433.627 103.082 437.308 103.093 440.989 103.172C438.46 97.7075 440.266 91.43 439.747 85.6155C447.266 90.7075 454.65 95.9913 462.135 101.128C462.09 101.625 461.989 102.63 461.943 103.127C465.737 103.082 469.53 103.104 473.335 103.003C472.793 102.698 471.698 102.099 471.145 101.806C471.043 94.0833 470.998 86.3607 471.179 78.6494C471.755 78.4236 472.906 77.9833 473.482 77.7575C469.463 77.5429 465.432 77.5655 461.413 77.7462C461.977 78.0058 463.106 78.5139 463.671 78.7736C463.693 84.1026 463.761 89.4429 463.581 94.772C456.456 89.4091 448.914 84.6445 441.858 79.2026C442.253 78.8075 443.032 78.0284 443.427 77.6333C438.956 77.6671 434.497 77.5655 430.048 77.7349ZM563.387 81.2575C560.756 83.8429 561.501 88.4268 564.674 90.1768C570.184 93.1236 576.687 92.2994 582.682 93.18C584.782 93.6655 588.316 93.1123 588.542 96.0591C586.487 99.0849 582.445 99.1639 579.171 99.2655C574.056 98.9833 568.242 98.7349 564.437 94.8171C563.06 96.7139 561.795 98.6897 560.429 100.586C567.056 101.546 573.492 104.064 580.3 103.477C585.301 103.183 590.947 102.743 594.763 99.0736C597.269 96.4317 596.355 91.7349 593.08 90.1881C586.397 86.6091 578.471 88.0204 571.279 86.5413C569.98 86.2139 569.416 84.7913 568.513 83.9558C575.637 79.8349 585.55 80.5913 592.042 85.5704C593.419 83.6736 594.819 81.7994 596.242 79.9365C590.134 79.3607 584.297 76.9107 578.098 77.1139C573.04 77.2607 567.248 77.5655 563.387 81.2575ZM620.753 77.7913C621.408 77.9945 622.695 78.4236 623.35 78.6268C623.203 86.3155 623.779 94.0381 623.079 101.693C622.582 102.066 621.611 102.799 621.126 103.161C625.066 102.991 629.018 103.025 632.969 103.262C632.371 102.054 631.366 100.914 631.479 99.48C631.366 92.6381 631.501 85.7849 631.49 78.9316C632.179 78.5139 632.868 78.0962 633.568 77.6784C629.3 77.6107 625.021 77.5994 620.753 77.7913ZM191.043 77.5881C191.348 86.0897 191.382 94.6252 191.021 103.127C194.318 103.082 197.614 103.093 200.911 103.036C200.527 102.551 199.771 101.591 199.387 101.106C200.042 93.2591 198.122 85.0284 200.539 77.4526C197.366 77.622 194.205 77.6558 191.043 77.5881ZM500.568 77.5429C501.234 83.6962 500.805 89.8833 500.963 96.0591C500.884 98.5429 501.471 101.467 499.179 103.24C507.771 102.833 516.385 103.206 524.989 103.07C528.703 103.172 532.677 102.461 536.132 104.267C536.098 102.167 536.098 100.056 536.155 97.9558C527.314 100.09 518.034 98.3736 509.024 98.9268C509.035 96.5897 509.035 94.2413 509.035 91.8929C515.03 92.3671 521.522 90.5494 527.179 93.1123C527.19 90.9558 527.258 88.7881 527.371 86.6429C521.59 89.0026 515.143 87.4558 509.069 87.8171C509.047 85.7736 509.035 83.7413 509.024 81.7091C517.774 82.2962 526.806 80.4784 535.353 82.68C535.376 80.6252 535.41 78.5817 535.489 76.5268C533.569 77.2042 531.605 77.7913 529.561 77.6784C519.897 77.5768 510.221 77.7687 500.568 77.5429ZM673.671 77.5881C673.693 82.3413 669.539 85.4349 667.337 89.251C663.589 93.8349 661.24 99.751 656.205 103.127C660.134 103.014 664.074 103.036 668.003 103.217C666.242 100.699 668.601 98.5881 669.81 96.4881C675.556 96.5446 681.303 96.4881 687.05 96.5558C688.1 98.0123 689.161 99.48 690.234 100.936C689.748 101.67 689.263 102.404 688.789 103.138C693.395 103.003 698.013 103.014 702.619 103.116C700.835 102.145 699.074 101.038 697.979 99.2768C693.892 93.5639 689.714 87.9075 685.548 82.251C684.25 80.9752 684.306 79.18 684.498 77.5091C680.885 77.622 677.284 77.6671 673.671 77.5881Z" fill="#2E3193"/>
<path d="M306.024 81.6752C312.234 82.0478 318.748 80.851 324.721 83.03C330.592 85.4236 330.66 95.2913 324.721 97.651C318.737 99.83 312.234 98.5881 306.024 98.972C305.99 93.2026 306.001 87.4445 306.024 81.6752Z" fill="#2E3193"/>
<path d="M377.604 82.1835C383.058 80.7835 389.493 81.0545 394.1 84.6335C397.43 87.1625 397.724 92.627 394.664 95.4948C390.092 99.5706 383.317 99.9883 377.627 98.498C373.958 97.448 370.119 94.5803 370.221 90.3803C370.062 86.1915 373.901 83.1996 377.604 82.1835Z" fill="#2E3193"/>
<path d="M26.5771 82.1265C28.1239 84.9716 29.5013 87.8958 30.8674 90.82C33.8142 91.3055 36.761 91.8136 39.7077 92.2878C37.6642 94.5797 35.5755 96.8265 33.4416 99.0281C33.8819 102.235 34.3448 105.441 34.819 108.636C32.1206 107.202 29.4335 105.712 26.7577 104.244C24.0481 105.712 21.3271 107.18 18.6174 108.647C19.069 105.497 19.5319 102.359 19.9948 99.2087C17.9287 96.8829 15.8061 94.6023 13.6948 92.3103C16.6755 91.7684 19.6674 91.2942 22.6481 90.7748C23.9464 87.8845 25.2561 85.0055 26.5771 82.1265Z" fill="#2E3193"/>
<path d="M112.248 90.8201C113.637 87.9072 115.003 84.9717 116.437 82.0701C117.825 84.9943 119.214 87.9185 120.591 90.8427C123.561 91.3168 126.541 91.8023 129.511 92.2539C127.411 94.5798 125.006 96.691 123.29 99.333C123.47 102.46 124.125 105.543 124.543 108.636C121.845 107.202 119.158 105.768 116.504 104.244C113.783 105.735 111.051 107.225 108.308 108.67C108.782 105.486 109.256 102.291 109.741 99.1072C107.608 96.8604 105.462 94.6023 103.351 92.333C106.309 91.791 109.278 91.2943 112.248 90.8201Z" fill="#2E3193"/>
<path d="M672.372 93.146C674.393 90.0525 676.448 86.9928 678.525 83.9331C680.614 86.9589 682.635 90.0412 684.543 93.1799C680.479 93.146 676.426 93.146 672.372 93.146Z" fill="#2E3193"/>
<path d="M67.7079 109.653C69.1756 106.728 70.5982 103.77 71.9304 100.778C73.274 103.759 74.6966 106.694 76.074 109.653C79.0208 110.138 81.9788 110.612 84.9143 111.188C82.8143 113.457 80.7143 115.715 78.603 117.962C79.0659 121.135 79.5062 124.307 79.9804 127.48C77.3046 126.046 74.6401 124.59 71.9869 123.111C69.2546 124.567 66.5224 126.012 63.7675 127.412C64.2417 124.251 64.6933 121.09 65.224 117.928C63.0901 115.648 60.945 113.401 58.7546 111.177C61.7353 110.669 64.7272 110.149 67.7079 109.653Z" fill="#2E3193"/>
</g>
<defs>
<clipPath id="clip0_1124_24328">
<rect width="735" height="126.169" fill="white" transform="translate(0 0.915283)"/>
</clipPath>
</defs>
</svg>
