<?xml version="1.0" standalone="no"?>
<!DOCTYPE svg PUBLIC "-//W3C//DTD SVG 20010904//EN"
 "http://www.w3.org/TR/2001/REC-SVG-20010904/DTD/svg10.dtd">
<svg version="1.0" xmlns="http://www.w3.org/2000/svg"
 width="552.000000pt" height="552.000000pt" viewBox="0 0 552.000000 552.000000"
 preserveAspectRatio="xMidYMid meet">
<metadata>
Created by potrace 1.14, written by Peter Selinger 2001-2017
</metadata>
<g transform="translate(0.000000,552.000000) scale(0.100000,-0.100000)"
fill="#000000" stroke="none">
<path d="M1490 5093 c-45 -93 -83 -170 -85 -172 -2 -1 -21 -5 -42 -8 -21 -2
-45 -7 -53 -10 -8 -3 -26 -7 -40 -9 -28 -4 -198 -31 -208 -33 -8 -2 21 -38
105 -128 146 -156 135 -140 128 -203 -8 -73 -15 -122 -20 -140 -2 -8 -7 -49
-11 -90 -3 -41 -8 -78 -11 -82 -8 -15 8 -8 90 38 45 26 112 62 149 79 l68 33
63 -23 c52 -18 197 -90 232 -115 26 -18 44 -19 40 -2 -1 9 -6 37 -9 62 -3 25
-8 56 -10 70 -3 14 -10 61 -16 105 -6 44 -13 89 -15 101 -5 22 6 35 176 211
38 39 69 74 69 76 0 6 -84 24 -110 25 -8 0 -26 3 -40 6 -14 4 -36 8 -50 10
-14 3 -45 8 -70 12 -25 4 -52 8 -60 8 -15 1 -73 109 -139 259 -19 43 -38 80
-42 83 -4 2 -45 -71 -89 -163z"/>
<path d="M3987 5237 c-9 -15 -17 -28 -17 -30 0 -5 -131 -280 -135 -285 -2 -2
-16 -5 -31 -7 -16 -2 -38 -6 -49 -9 -11 -2 -73 -14 -138 -26 -64 -12 -119 -25
-121 -29 -3 -3 28 -40 67 -82 140 -148 177 -191 172 -198 -2 -5 -7 -26 -10
-47 -2 -21 -13 -100 -24 -174 -10 -74 -18 -136 -17 -137 3 -3 108 49 116 57 3
3 19 12 35 20 17 8 60 32 97 53 l68 39 97 -53 c54 -28 126 -67 160 -85 61 -34
78 -40 70 -26 -3 4 -8 30 -11 57 -4 28 -9 68 -12 90 -3 22 -12 81 -19 130
l-12 90 35 40 c43 48 125 136 170 182 36 37 41 58 15 59 -21 1 -74 9 -153 23
-30 6 -71 13 -90 17 -19 3 -42 7 -50 9 -8 2 -18 4 -22 4 -5 1 -45 78 -91 172
l-83 172 -17 -26z"/>
<path d="M2754 4348 c-9 -18 -21 -36 -26 -39 -5 -3 -10 -16 -11 -27 -1 -12 -4
-22 -7 -22 -3 0 -11 -15 -19 -32 -8 -18 -56 -118 -106 -223 -102 -209 -172
-357 -230 -482 -37 -80 -39 -82 -79 -89 -22 -3 -50 -8 -61 -10 -24 -5 -68 -13
-110 -19 -47 -7 -94 -15 -185 -32 -46 -8 -96 -17 -111 -18 -25 -3 -94 -15
-176 -30 -16 -3 -44 -8 -63 -11 -19 -3 -73 -12 -120 -21 -47 -9 -91 -16 -98
-16 -7 0 -11 -4 -10 -8 2 -4 57 -65 123 -135 195 -206 391 -416 476 -508 30
-32 63 -69 75 -80 11 -12 19 -31 17 -41 -1 -11 -5 -38 -7 -60 -3 -22 -7 -51
-10 -64 -3 -14 -10 -59 -16 -101 -6 -42 -12 -85 -14 -96 -2 -10 -6 -40 -10
-65 -4 -25 -9 -57 -11 -70 -2 -13 -6 -40 -9 -59 -25 -177 -37 -257 -41 -270
-2 -8 -6 -40 -10 -70 -3 -30 -9 -80 -14 -110 -5 -30 -7 -57 -6 -59 2 -2 68 32
147 75 171 93 213 116 276 150 26 15 83 46 127 69 44 24 137 74 206 112 l127
70 83 -45 c84 -44 301 -161 394 -212 62 -34 236 -130 331 -181 39 -22 74 -39
76 -39 6 0 4 22 -6 85 -4 22 -9 59 -12 81 -3 23 -6 51 -9 62 -2 11 -6 42 -10
69 -4 26 -9 59 -11 73 -2 14 -11 75 -20 135 -8 61 -17 121 -20 135 -2 14 -6
45 -9 70 -3 25 -8 52 -10 60 -2 8 -7 38 -11 65 -3 28 -8 59 -10 70 -2 11 -7
43 -10 70 -4 28 -8 52 -9 55 -4 7 24 40 140 165 111 121 136 147 290 310 243
257 264 280 257 287 -4 4 -25 10 -47 13 -22 4 -47 8 -55 10 -8 2 -35 7 -60 10
-24 4 -162 27 -305 51 -143 25 -276 47 -295 50 -19 2 -62 9 -95 15 -33 5 -71
12 -84 14 -22 4 -50 30 -51 48 0 13 -62 144 -223 477 -38 80 -96 200 -128 267
-33 67 -59 126 -59 132 0 25 -21 19 -36 -11z"/>
<path d="M520 3661 c0 -8 -147 -321 -154 -329 -6 -5 -288 -53 -328 -55 -29 -2
-21 -19 40 -82 31 -34 86 -93 121 -133 l63 -71 -11 -78 c-6 -43 -13 -89 -16
-103 -3 -14 -7 -41 -9 -60 -2 -19 -7 -56 -11 -83 -8 -54 -6 -54 75 -7 25 14
88 50 141 78 l96 52 84 -46 c46 -24 96 -50 112 -55 15 -6 27 -15 27 -20 0 -5
7 -9 16 -9 9 0 29 -9 45 -21 16 -11 33 -19 37 -17 5 2 3 37 -4 78 -7 41 -16
91 -19 110 -3 19 -8 71 -10 115 l-5 80 42 49 c24 27 78 86 120 130 42 45 75
82 74 84 -6 5 -56 14 -211 37 -143 21 -137 19 -159 68 -55 124 -142 297 -148
297 -5 0 -8 -4 -8 -9z"/>
<path d="M4983 3619 c-12 -27 -23 -53 -24 -57 -3 -6 -35 -69 -91 -174 -11 -20
-25 -41 -31 -47 -13 -10 -125 -38 -190 -48 -21 -3 -44 -6 -50 -7 -7 -2 -33 -6
-59 -11 -27 -4 -48 -8 -48 -10 0 -1 39 -42 86 -91 47 -49 101 -108 121 -131
34 -41 34 -42 29 -120 -2 -43 -7 -87 -9 -98 -13 -56 -30 -196 -25 -201 4 -3
23 5 45 19 21 13 93 51 161 86 l122 62 29 -20 c16 -12 32 -21 35 -21 3 0 58
-29 121 -64 63 -36 117 -61 120 -56 3 5 3 24 0 42 -10 54 -13 78 -31 200 l-16
118 63 72 c35 40 71 80 80 88 39 36 101 111 97 116 -3 3 -16 7 -29 9 -228 39
-282 48 -298 48 -12 0 -161 293 -161 316 0 5 -6 13 -13 19 -10 9 -18 1 -34
-39z"/>
<path d="M926 2001 c-9 -17 -13 -31 -9 -31 5 0 3 -4 -3 -8 -5 -4 -21 -32 -33
-62 -26 -61 -92 -203 -96 -208 -2 -2 -81 -17 -176 -33 -96 -17 -175 -31 -176
-33 -1 -1 16 -22 40 -47 118 -127 201 -222 203 -233 1 -6 -2 -34 -6 -62 -4
-27 -11 -69 -14 -94 -3 -25 -8 -56 -11 -70 -2 -14 -7 -47 -10 -74 -3 -27 -8
-53 -11 -58 -9 -14 34 0 66 20 14 9 54 32 90 50 36 19 89 47 119 63 l54 29 41
-24 c23 -13 61 -34 86 -47 25 -12 57 -31 73 -41 15 -11 27 -16 27 -13 0 3 12
-2 28 -13 38 -26 62 -34 62 -19 0 7 -4 39 -10 72 -17 112 -23 150 -25 180 -2
17 -6 49 -10 72 -7 42 -6 43 56 109 35 37 90 95 122 128 59 63 66 75 45 77 -7
0 -20 2 -28 4 -31 8 -196 36 -210 37 -8 0 -33 4 -55 10 -40 9 -41 10 -115 161
-98 202 -94 197 -114 158z"/>
<path d="M4453 1861 c-45 -93 -85 -171 -90 -174 -5 -3 -31 -8 -58 -12 -42 -5
-101 -14 -245 -40 -19 -3 -36 -8 -38 -10 -2 -2 23 -32 56 -67 202 -214 192
-200 186 -238 -2 -19 -7 -53 -10 -75 -2 -22 -9 -60 -14 -85 -6 -25 -12 -70
-15 -100 -3 -30 -8 -64 -12 -75 -5 -16 -3 -18 8 -9 8 6 64 37 124 69 61 31
129 69 153 82 l42 25 43 -25 c92 -53 266 -147 272 -147 3 0 3 15 0 33 -2 17
-7 48 -9 67 -3 19 -8 53 -12 75 -4 22 -8 51 -9 65 -2 14 -6 48 -9 76 -6 47 -4
54 31 99 20 27 74 88 120 135 45 47 83 90 83 96 0 7 -10 12 -22 11 -13 0 -36
3 -53 6 -30 6 -102 17 -142 22 -13 2 -42 7 -65 11 -24 4 -47 8 -52 8 -12 1
-14 5 -101 189 -41 86 -76 157 -78 157 -2 0 -40 -76 -84 -169z"/>
<path d="M2740 1253 c-8 -16 -14 -31 -14 -34 -1 -3 -32 -68 -69 -145 l-69
-140 -141 -24 c-78 -14 -145 -25 -149 -26 -5 -1 -19 -2 -33 -3 -14 0 -25 -5
-25 -9 0 -4 56 -66 125 -137 106 -110 124 -134 120 -155 -8 -43 -15 -87 -40
-265 -3 -16 -7 -40 -9 -53 -4 -18 0 -22 20 -22 13 0 24 5 24 10 0 6 8 10 18
10 10 0 22 4 28 9 16 14 222 121 234 121 6 0 69 -32 138 -71 116 -64 194 -96
180 -73 -4 5 -9 33 -12 62 -3 29 -8 63 -11 75 -2 12 -6 40 -9 62 -13 97 -17
131 -21 142 -3 10 24 41 198 226 50 53 55 63 35 65 -7 0 -40 5 -73 12 -33 6
-76 13 -95 16 -34 4 -69 11 -100 19 -8 2 -27 4 -41 4 -21 1 -30 11 -54 64 -77
166 -135 287 -138 287 -2 0 -10 -12 -17 -27z"/>
</g>
</svg>
